# xmcd CD database file
# Copyright (C) 1996 Ti Kan
#
# Track frame offsets:
#  150
#  16032
#  30015
#  44365
#  59555
#  71100
#  82927
#  97447
#  108907
#  123860
#  142955
#  157105
#  173395
#  186440
#  195935
#  212505
#  229037
#  244120
#  256267
#  267702
#
# Disc length: 3726 seconds
#
# Revision: 1
# Processed by: cddbd v1.4b41PL1 Copyright (c) Steve Scherf et al.
# Submitted via: CDWizzard Release:4.15
#
DISCID=0c0e8c14
DTITLE=MISC - 20  Country Classics
DYEAR=1900
DGENRE=
TTITLE0=Blanket on the ground
TTITLE1=Daytime friends
TTITLE2=A little bit more
TTITLE3=Take me home country road
TTITLE4=All i have to do is dream
TTITLE5=Easy lovin'
TTITLE6=Another somebody done somebody wrong song
TTITLE7=Six days on the road
TTITLE8=Bluest heartache of the year
TTITLE9=Ode to Billy Jo
TTITLE10=Rhinestone cowboy
TTITLE11=You need me
TTITLE12=Oki from Muskogee
TTITLE13=When will i be loved
TTITLE14=An American Dream
TTITLE15=Walk a mile in my shoes
TTITLE16=I'm not Lisa
TTITLE17=Girl on the bilboard
TTITLE18=Don't it make your brown eyes blue
TTITLE19=Duelling Banjos
EXTD=
EXTT0=Billie Jo Spears
EXTT1=Kenny Rogers
EXTT2=Dr. Hook
EXTT3=Olivia Newton John
EXTT4=Glen Campbell and Bobbie Gentry
EXTT5=Slim Whitman
EXTT6=Kenny Rogers and Dotty West
EXTT7=Dave Dudley
EXTT8=Kenny dale
EXTT9=Bobbie Gentry
EXTT10=Glen Campbell
EXTT11=Anne Murray
EXTT12=Merle Haggard
EXTT13=Linda Ronstadt
EXTT14=The Dirt Band
EXTT15=Joe South
EXTT16=Jesse Coulter
EXTT17=Del Reeves
EXTT18=Crystal Gayle
EXTT19=Carl Jackson
PLAYORDER=
